<?xml version="1.0" encoding="UTF-8" standalone="no"?>
<svg
   xmlns:dc="http://purl.org/dc/elements/1.1/"
   xmlns:cc="http://creativecommons.org/ns#"
   xmlns:rdf="http://www.w3.org/1999/02/22-rdf-syntax-ns#"
   xmlns:svg="http://www.w3.org/2000/svg"
   xmlns="http://www.w3.org/2000/svg"
   xmlns:sodipodi="http://sodipodi.sourceforge.net/DTD/sodipodi-0.dtd"
   xmlns:inkscape="http://www.inkscape.org/namespaces/inkscape"
   width="261.9375mm"
   height="214.0101mm"
   viewBox="0 0 261.9375 214.0101"
   version="1.1"
   id="svg8"
   inkscape:version="1.0.1 (c497b03c, 2020-09-10)"
   sodipodi:docname="drawing-2.svg">
  <defs
     id="defs2" />
  <sodipodi:namedview
     id="base"
     pagecolor="#ffffff"
     bordercolor="#666666"
     borderopacity="1.0"
     inkscape:pageopacity="0.0"
     inkscape:pageshadow="2"
     inkscape:zoom="0.79807615"
     inkscape:cx="461.2128"
     inkscape:cy="349.2205"
     inkscape:document-units="mm"
     inkscape:current-layer="layer1"
     inkscape:document-rotation="0"
     showgrid="false"
     fit-margin-top="0"
     fit-margin-left="0"
     fit-margin-right="0"
     fit-margin-bottom="0"
     inkscape:window-width="1252"
     inkscape:window-height="704"
     inkscape:window-x="0"
     inkscape:window-y="23"
     inkscape:window-maximized="0" />
  <metadata
     id="metadata5">
    <rdf:RDF>
      <cc:Work
         rdf:about="">
        <dc:format>image/svg+xml</dc:format>
        <dc:type
           rdf:resource="http://purl.org/dc/dcmitype/StillImage" />
        <dc:title></dc:title>
      </cc:Work>
    </rdf:RDF>
  </metadata>
  <g
     inkscape:label="Layer 1"
     inkscape:groupmode="layer"
     id="layer1"
     transform="translate(28.159229,-26.798525)">
    <g
       id="g312"
       transform="matrix(0.26458333,0,0,0.26458333,-28.159229,26.798524)">
      <path
         d="M 1047.0846,354.9583 C 1002.1682,178.33685 846.96793,50.84086 664.7964,45.72711 568.48777,43.02362 467.14421,74.9649 393.35863,186.73911 c -131.89969,199.80845 8.10555,337.88222 105.7135,403.49213 a 610.75747,610.75747 0 0 1 126.24112,113.4651 c 65.931,78.23771 192.76719,175.45907 343.82337,23.12816 109.48568,-110.40966 107.86668,-254.21887 77.94798,-371.8662 z"
         transform="translate(-105,-45.57147)"
         fill="#f2f2f2"
         id="path164" />
      <path
         d="M 1095,625.24447 C 1095,709.28188 881.83446,854.42853 608.45351,854.42853 335.07256,854.42853 105,713.039 105,629.00158 105,544.96416 515.4649,412.96743 608.45351,550.10215 701.44212,687.23687 1095,541.20706 1095,625.24447 Z"
         transform="translate(-105,-45.57147)"
         fill="#3f3d56"
         id="path166" />
      <path
         d="M 1095,625.24447 C 1095,709.28188 881.83446,854.42853 608.45351,854.42853 335.07256,854.42853 105,713.039 105,629.00158 105,544.96416 515.4649,412.96743 608.45351,550.10215 701.44212,687.23687 1095,541.20706 1095,625.24447 Z"
         transform="translate(-105,-45.57147)"
         opacity="0.1"
         id="path168" />
      <path
         d="m 1095,629.00158 c 0,84.03741 -221.619,152.16319 -495,152.16319 -273.381,0 -495,-68.12577 -495,-152.16319 0,-84.03742 402.01139,-289.29791 495,-152.16318 92.98861,137.13473 495,68.12578 495,152.16318 z"
         transform="translate(-105,-45.57147)"
         fill="#3f3d56"
         id="path170" />
      <ellipse
         cx="686.61292"
         cy="609.72992"
         rx="144.64896"
         ry="54.47818"
         opacity="0.1"
         id="ellipse172" />
      <ellipse
         cx="105.19924"
         cy="575.91589"
         rx="77.020866"
         ry="29.00786"
         opacity="0.1"
         id="ellipse174" />
      <path
         d="m 126.31787,495.442 c 0,60.129 37.72178,108.78462 84.33865,108.78462"
         transform="translate(-105,-45.57147)"
         fill="#2f2e41"
         id="path176" />
      <path
         d="m 210.65652,604.22665 c 0,-60.80461 42.09531,-110.00692 94.117,-110.00692"
         transform="translate(-105,-45.57147)"
         fill="#6c63ff"
         id="path178" />
      <path
         d="m 156.87535,500.89282 c 0,57.11616 24.05447,103.33383 53.78117,103.33383"
         transform="translate(-105,-45.57147)"
         fill="#6c63ff"
         id="path180" />
      <path
         d="m 210.65652,604.22665 c 0,-77.69477 48.65562,-140.5644 108.78462,-140.5644"
         transform="translate(-105,-45.57147)"
         fill="#2f2e41"
         id="path182" />
      <path
         d="m 192.91384,604.9936 c 0,0 11.96061,-0.36838 15.56523,-2.93518 3.60462,-2.5668 18.39843,-5.63172 19.29265,-1.51512 0.89422,4.1166 17.97457,20.47406 4.4711,20.583 -13.50347,0.10894 -31.376,-2.10337 -34.97374,-4.29486 -3.59774,-2.19149 -4.35524,-11.83784 -4.35524,-11.83784 z"
         transform="translate(-105,-45.57147)"
         fill="#a8a8a8"
         id="path184" />
      <path
         d="m 232.48381,619.69328 c -13.50347,0.109 -31.376,-2.10336 -34.97374,-4.29486 -2.73983,-1.66894 -3.83163,-7.6575 -4.19693,-10.4204 -0.253,0.0109 -0.3993,0.0156 -0.3993,0.0156 0,0 0.75756,9.64631 4.35525,11.83782 3.59769,2.19151 21.47027,4.4038 34.97374,4.29485 3.89791,-0.0314 5.24432,-1.41825 5.17039,-3.47226 -0.54151,1.241 -2.02814,2.01589 -4.92941,2.03928 z"
         transform="translate(-105,-45.57147)"
         opacity="0.2"
         id="path186" />
      <ellipse
         cx="380.50226"
         cy="432.02573"
         rx="99.26915"
         ry="37.387081"
         opacity="0.1"
         id="ellipse188" />
      <path
         d="m 377.39089,315.14237 c 0,77.49789 48.6181,140.20819 108.70073,140.20819"
         transform="translate(-105,-45.57147)"
         fill="#2f2e41"
         id="path190" />
      <path
         d="m 486.09162,455.35056 c 0,-78.36865 54.255,-141.78356 121.30372,-141.78356"
         transform="translate(-105,-45.57147)"
         fill="#6c63ff"
         id="path192" />
      <path
         d="m 416.77521,322.16768 c 0,73.61476 31.00285,133.18288 69.31641,133.18288"
         transform="translate(-105,-45.57147)"
         fill="#6c63ff"
         id="path194" />
      <path
         d="m 486.09162,455.35056 c 0,-100.13772 62.7103,-181.16788 140.20819,-181.16788"
         transform="translate(-105,-45.57147)"
         fill="#2f2e41"
         id="path196" />
      <path
         d="m 463.22379,456.33905 c 0,0 15.41555,-0.47479 20.06141,-3.783 4.64586,-3.30821 23.713,-7.2585 24.86553,-1.95278 1.15253,5.30572 23.16671,26.38821 5.76263,26.5286 -17.40408,0.14039 -40.43935,-2.711 -45.07627,-5.53549 -4.63692,-2.82449 -5.6133,-15.25733 -5.6133,-15.25733 z"
         transform="translate(-105,-45.57147)"
         fill="#a8a8a8"
         id="path198" />
      <path
         d="m 514.22395,475.28489 c -17.40408,0.14042 -40.43933,-2.71094 -45.07626,-5.53548 -3.53126,-2.151 -4.93843,-9.86945 -5.40926,-13.43043 -0.32607,0.014 -0.51463,0.02 -0.51463,0.02 0,0 0.97638,12.43276 5.61331,15.2573 4.63693,2.82454 27.67217,5.67589 45.07626,5.53547 5.02386,-0.0405 6.7592,-1.82793 6.66391,-4.47526 -0.69793,1.59951 -2.61399,2.59825 -6.35333,2.6284 z"
         transform="translate(-105,-45.57147)"
         opacity="0.2"
         id="path200" />
      <path
         d="m 667.40762,54.95255 h 9e-5 a 46.52365,46.52365 0 0 1 46.52365,46.52365 V 148 H 620.884 v -46.52379 a 46.52365,46.52365 0 0 1 46.52365,-46.52365 z"
         fill="#2f2e41"
         id="path202"
         style="fill:#2b1100" />
      <path
         d="m 811.44026,190.81155 -0.67813,4.39215 -2.476,16.10982 v 24.44465 l -28.38734,13.40514 -26.02179,2.36561 -10.251,-33.48131 -1.57707,-5.157 c 0,0 0.45741,-0.30754 1.25384,-0.83585 0.69382,-0.47315 1.65581,-1.11975 2.80714,-1.89251 3.48537,-2.34193 8.65813,-5.85882 13.28684,-9.0997 7.88537,-5.51976 0,-39.42686 0,-39.42686 l 26.02173,-2.36562 c 0,0 2.36561,6.3083 4.73122,19.71344 1.77421,10.05385 12.86109,11.67823 18.294,11.85958 a 26.41947,26.41947 0 0 0 2.99656,-0.0315 z"
         transform="translate(-105,-45.57147)"
         fill="#ffb9b9"
         id="path204"
         style="fill:#916f6f" />
      <polygon
         points="622.855,572.627 638.626,572.627 646.511,511.91 622.855,514.276 "
         fill="#ffb9b9"
         id="polygon206"
         style="fill:#916f6f" />
      <path
         d="m 736.52921,598.48534 -9.46244,-1.57708 c 0,0 -3.94269,31.54149 -7.88538,38.63833 -3.94269,7.09684 -25.23319,36.27272 -13.40513,37.84979 11.82806,1.57707 27.5988,0 28.38734,-3.94269 0.78854,-3.94269 7.09684,-27.5988 7.88538,-26.02173 0.78854,1.57707 0,17.34782 0,17.34782 h 3.15414 v -18.92489 c 0,0 13.40514,-9.46245 9.46245,-14.19367 -3.94269,-4.73122 -7.88537,-16.55929 -7.88537,-16.55929 l 0.78854,-11.82806 z"
         transform="translate(-105,-45.57147)"
         fill="#2f2e41"
         id="path208" />
      <polygon
         points="742.713,572.627 726.942,572.627 719.057,511.91 742.713,514.276 "
         fill="#ffb9b9"
         id="polygon210"
         style="fill:#916f6f" />
      <path
         d="m 839.03906,598.48534 9.46245,-1.57708 c 0,0 3.94269,31.54149 7.88538,38.63833 3.94269,7.09684 25.23319,36.27272 13.40513,37.84979 -11.82806,1.57707 -27.59881,0 -28.38734,-3.94269 -0.78853,-3.94269 -7.09684,-27.5988 -7.88538,-26.02173 -0.78854,1.57707 0,17.34782 0,17.34782 h -3.15415 v -18.92489 c 0,0 -13.40513,-9.46245 -9.46244,-14.19367 3.94269,-4.73122 7.88537,-16.55929 7.88537,-16.55929 l -0.78854,-11.82806 z"
         transform="translate(-105,-45.57147)"
         fill="#2f2e41"
         id="path212" />
      <circle
         cx="667.01337"
         cy="101.87052"
         r="29.96442"
         fill="#ffb9b9"
         id="circle214"
         style="fill:#916f6f" />
      <path
         d="m 865.84933,278.33919 -19.71343,73.334 -2.36561,26.02173 -14.19367,-26.02173 c 0,0 7.88537,-11.82806 9.46244,-19.71343 1.57707,-7.88537 8.67392,-49.67786 8.67392,-49.67786 l -22.17367,-47.66709 -0.91473,-1.96345 -7.66458,-0.0474 -7.88537,-10.251 4.73122,-12.6166 v -9.4624 l -3.04374,-5.07029 -1.68748,-2.81508 2.36561,-1.57707 12.6166,-1.57708 a 5.33892,5.33892 0 0 1 1.5455,0.10252 c 3.304,0.60714 11.284,4.23444 17.37939,24.34214 7.88539,26.02172 22.8676,64.66005 22.8676,64.66005 z"
         transform="translate(-105,-45.57147)"
         fill="#ffb9b9"
         id="path216"
         style="fill:#916f6f" />
      <path
         d="M 753.877,268.87674 V 316.189 l -26.0217,72.54541 c 0,0 -6.30829,29.96442 -25.23319,31.54149 -18.9249,1.57707 12.6166,-35.48418 12.6166,-35.48418 l 20.502,-78.06519 v -41.00394 c 0,0 -5.51976,-21.29051 -7.09684,-30.753 -1.17491,-7.06532 1.15913,-14.56431 2.42086,-17.9156 0.42575,-1.13549 0.73329,-1.79784 0.73329,-1.79784 l 10.251,-3.15415 1.25384,-0.0473 0.32323,5.99287 0.78854,14.55641 z"
         transform="translate(-105,-45.57147)"
         fill="#ffb9b9"
         id="path218"
         style="fill:#916f6f" />
      <path
         d="m 818.53709,295.687 c 0,0 5.51977,17.34782 6.3083,18.13636 0.78853,0.78854 -17.34782,3.94268 -17.34782,3.94268 h -34.69564 l -17.34782,-7.88537 1.57707,-14.98221 z"
         transform="translate(-105,-45.57147)"
         fill="#ffb9b9"
         id="path220" />
      <path
         d="m 827.211,305.938 c 0,0 -1.57708,17.34782 2.36561,23.65612 3.94269,6.3083 14.19367,18.13636 17.34782,52.832 3.15415,34.69564 7.09683,165.59284 8.67391,171.1126 1.57708,5.51976 6.3083,12.6166 1.57707,13.40513 -4.73123,0.78853 -41.79247,9.46245 -41.79247,0 0,-9.46245 0,-12.61659 -2.36562,-14.19367 -2.36562,-1.57708 -30.753,-125.37743 -30.753,-125.37743 l -26.02167,128.53157 c 0,0 10.251,14.19367 -5.51976,12.6166 -15.77076,-1.57707 -43.36956,-3.94269 -40.21541,-11.82806 a 77.03406,77.03406 0 0 0 3.94269,-11.82806 l 15.77075,-141.93672 c 0,0 3.15414,-59.92883 23.65612,-91.86459 l 1.57707,-7.59976 c 0,0 29.17589,2.47427 39.42689,5.62841 10.251,3.15414 32.33,-3.15414 32.33,-3.15414 z"
         transform="translate(-105,-45.57147)"
         fill="#2f2e41"
         id="path222" />
      <path
         d="m 825.53931,234.61478 c -0.66234,8.61871 -4.57346,60.02346 -3.84807,65.80345 0,0 3.94269,4.73123 -7.88537,2.36561 -11.82806,-2.36562 -46.5237,0 -50.46639,0.78854 -3.94269,0.78854 -8.67391,3.94269 -8.67391,-1.57707 0,-5.51976 1.57708,-22.079 -0.78853,-24.44466 -2.36561,-2.36566 -14.19368,-22.86758 -13.40514,-28.38734 0.56772,-3.96637 -5.78,-22.16577 -9.4072,-32.10927 0.42575,-1.13549 0.73329,-1.79784 0.73329,-1.79784 l 10.251,-3.15415 1.25384,-0.0473 c 0.69382,-0.47315 1.65581,-1.11975 2.80714,-1.89251 l 3.82439,18.49911 1.57707,6.3083 c 0,0 26.02173,0 46.5237,-14.98221 l 10.40866,-29.14436 a 26.41947,26.41947 0 0 0 2.99648,-0.0315 l 12.6166,-1.57708 a 5.33892,5.33892 0 0 1 1.5455,0.10252 l -11.79649,35.38166 10.81871,7.93268 1.00935,0.74123 c 0,0 -0.0316,0.43369 -0.0946,1.22222 z"
         transform="translate(-105,-45.57147)"
         fill="#ff6584"
         id="path224" />
      <polygon
         points="646.906,95.956 637.443,71.512 695.795,71.512 688.698,95.956 "
         fill="#2f2e41"
         id="polygon226"
         style="fill:#241c1c" />
      <ellipse
         cx="742.44324"
         cy="153.35602"
         rx="2.3656099"
         ry="6.3083"
         transform="rotate(-16.16012,529.44174,500.37705)"
         fill="#ffb9b9"
         id="ellipse228"
         style="fill:#916f6f" />
      <ellipse
         cx="801.58356"
         cy="153.35602"
         rx="6.3083"
         ry="2.3656099"
         transform="rotate(-73.83988,718.75782,200.44304)"
         fill="#ffb9b9"
         id="ellipse230"
         style="fill:#916f6f" />
      <rect
         x="440.52182"
         y="361.76028"
         width="161.55598"
         height="205.70209"
         fill="#ffffff"
         id="rect232" />
      <rect
         x="467.76089"
         y="414.82953"
         width="107.0778"
         height="30.056931"
         rx="2.7736199"
         fill="#2f2e41"
         id="rect234" />
      <circle
         cx="549.47821"
         cy="420.46521"
         r="2.8178401"
         fill="#6c63ff"
         id="circle236" />
      <circle
         cx="557.9317"
         cy="420.46521"
         r="2.8178401"
         fill="#6c63ff"
         id="circle238" />
      <circle
         cx="566.38519"
         cy="420.46521"
         r="2.8178401"
         fill="#6c63ff"
         id="circle240" />
      <rect
         x="467.76089"
         y="449.58286"
         width="107.0778"
         height="30.056931"
         rx="2.7736199"
         fill="#2f2e41"
         id="rect242" />
      <circle
         cx="549.47821"
         cy="455.21854"
         r="2.8178401"
         fill="#6c63ff"
         id="circle244" />
      <circle
         cx="557.9317"
         cy="455.21854"
         r="2.8178401"
         fill="#6c63ff"
         id="circle246" />
      <circle
         cx="566.38519"
         cy="455.21854"
         r="2.8178401"
         fill="#6c63ff"
         id="circle248" />
      <rect
         x="467.76089"
         y="484.33618"
         width="107.0778"
         height="30.056931"
         rx="2.7736199"
         fill="#2f2e41"
         id="rect250" />
      <circle
         cx="549.47821"
         cy="489.97186"
         r="2.8178401"
         fill="#6c63ff"
         id="circle252" />
      <circle
         cx="557.9317"
         cy="489.97186"
         r="2.8178401"
         fill="#6c63ff"
         id="circle254" />
      <circle
         cx="566.38519"
         cy="489.97186"
         r="2.8178401"
         fill="#6c63ff"
         id="circle256" />
    </g>
    <path
       style="fill:#6c5353;stroke-width:1.25301"
       d="m 688.63471,262.52883 c -2.41205,-0.69341 -9.74218,-1.956 -16.28917,-2.80574 l -11.90363,-1.54498 17.08323,-0.96085 c 9.39578,-0.52847 21.51869,-0.51595 26.93979,0.0278 5.4211,0.54377 10.27944,0.87995 10.79631,0.74707 0.51687,-0.13289 0.93976,0.54629 0.93976,1.50928 0,1.16936 -2.63512,2.20978 -7.93397,3.13253 -9.35657,1.62938 -13.67936,1.60623 -19.63232,-0.10513 z"
       id="path316"
       transform="matrix(0.26458333,0,0,0.26458333,-28.159229,26.798525)" />
    <path
       style="fill:#6c5353;stroke-width:1.25301"
       d="m 678.6106,260.1942 -11.90362,-2.20388 21.30122,0.005 c 11.71568,0.003 22.71087,0.42194 24.43376,0.93151 2.96401,0.87666 2.8629,1.00438 -1.87952,2.37414 -6.7101,1.93808 -17.53028,1.56329 -31.95184,-1.10678 z"
       id="path318"
       transform="matrix(0.26458333,0,0,0.26458333,-28.159229,26.798525)" />
    <path
       style="fill:#6c5353;stroke-width:1.25301"
       d=""
       id="path320"
       transform="matrix(0.26458333,0,0,0.26458333,-28.159229,26.798525)" />
  </g>
</svg>
