<?xml version="1.0" encoding="UTF-8" standalone="no"?>
<svg
   xmlns:dc="http://purl.org/dc/elements/1.1/"
   xmlns:cc="http://creativecommons.org/ns#"
   xmlns:rdf="http://www.w3.org/1999/02/22-rdf-syntax-ns#"
   xmlns:svg="http://www.w3.org/2000/svg"
   xmlns="http://www.w3.org/2000/svg"
   xmlns:sodipodi="http://sodipodi.sourceforge.net/DTD/sodipodi-0.dtd"
   xmlns:inkscape="http://www.inkscape.org/namespaces/inkscape"
   width="240.83047mm"
   height="212.12248mm"
   viewBox="0 0 240.83047 212.12248"
   version="1.1"
   id="svg8"
   inkscape:version="1.0.1 (c497b03c, 2020-09-10)"
   sodipodi:docname="asset1.svg">
  <defs
     id="defs2" />
  <sodipodi:namedview
     id="base"
     pagecolor="#ffffff"
     bordercolor="#666666"
     borderopacity="1.0"
     inkscape:pageopacity="0.0"
     inkscape:pageshadow="2"
     inkscape:zoom="0.97460812"
     inkscape:cx="352.29225"
     inkscape:cy="336.55293"
     inkscape:document-units="mm"
     inkscape:current-layer="layer1"
     inkscape:document-rotation="0"
     showgrid="false"
     fit-margin-top="0"
     fit-margin-left="0"
     fit-margin-right="0"
     fit-margin-bottom="0"
     inkscape:window-width="1252"
     inkscape:window-height="704"
     inkscape:window-x="0"
     inkscape:window-y="23"
     inkscape:window-maximized="0" />
  <metadata
     id="metadata5">
    <rdf:RDF>
      <cc:Work
         rdf:about="">
        <dc:format>image/svg+xml</dc:format>
        <dc:type
           rdf:resource="http://purl.org/dc/dcmitype/StillImage" />
        <dc:title />
      </cc:Work>
    </rdf:RDF>
  </metadata>
  <g
     inkscape:label="Layer 1"
     inkscape:groupmode="layer"
     id="layer1"
     transform="translate(17.605719,-36.057805)">
    <g
       id="g103"
       transform="matrix(0.26458333,0,0,0.26458333,-17.605719,36.057806)">
      <path
         d="M 916.05633,347.306 C 872.76877,177.08944 723.19661,54.2169 547.63127,49.28859 454.81514,46.68315 357.14665,77.46612 286.0368,185.187 158.92026,377.74969 293.84841,510.81642 387.91675,574.04707 A 588.60924,588.60924 0 0 1 509.57992,683.39751 C 573.12,758.79805 695.35669,852.49382 840.935,705.687 c 105.51541,-106.40583 103.95512,-245 75.12133,-358.381 z"
         transform="translate(-144.8873,-49.1386)"
         fill="#f2f2f2"
         id="path12" />
      <ellipse
         cx="455"
         cy="730.72278"
         rx="455"
         ry="23"
         fill="#3f3d56"
         id="ellipse14" />
      <ellipse
         cx="732.18195"
         cy="768.72278"
         rx="178.04349"
         ry="9"
         fill="#3f3d56"
         id="ellipse16" />
      <ellipse
         cx="396.05573"
         cy="792.72278"
         rx="178.04349"
         ry="9"
         fill="#3f3d56"
         id="ellipse18" />
      <path
         d="m 826.2655,399.3038 c 0,0 30.24614,-0.44137 23.80221,8.65362 -6.44393,9.09499 -31.44446,8.45972 -31.44446,8.45972 z"
         transform="translate(-144.8873,-49.1386)"
         fill="#ffb9b9"
         id="path20"
         style="fill:#806b5d;fill-opacity:1" />
      <path
         d="m 733.228,287.14939 30.60963,41.55779 26.46415,31.61723 c 0,0 27.42027,28.603 30.47831,32.55875 3.05804,3.95575 12.0425,2.82459 10.13026,8.85313 -1.91224,6.02854 -4.766,16.07125 -7.7511,17.11492 -2.9851,1.04367 -17.01278,-0.75185 -18.04186,-2.737 -1.02908,-1.98515 -66.57662,-39.03273 -89.96813,-65.69426 l -22.262,-15.11 -0.33393,-25.56466 z"
         transform="translate(-144.8873,-49.1386)"
         fill="#6c63ff"
         id="path22" />
      <path
         d="m 733.228,287.14939 30.60963,41.55779 26.46415,31.61723 c 0,0 27.42027,28.603 30.47831,32.55875 3.05804,3.95575 12.0425,2.82459 10.13026,8.85313 -1.91224,6.02854 -4.766,16.07125 -7.7511,17.11492 -2.9851,1.04367 -17.01278,-0.75185 -18.04186,-2.737 -1.02908,-1.98515 -66.57662,-39.03273 -89.96813,-65.69426 l -22.262,-15.11 -0.33393,-25.56466 z"
         transform="translate(-144.8873,-49.1386)"
         fill="#ff6584"
         id="path24" />
      <path
         d="m 733.228,287.14939 30.60963,41.55779 26.46415,31.61723 c 0,0 27.42027,28.603 30.47831,32.55875 3.05804,3.95575 12.0425,2.82459 10.13026,8.85313 -1.91224,6.02854 -4.766,16.07125 -7.7511,17.11492 -2.9851,1.04367 -17.01278,-0.75185 -18.04186,-2.737 -1.02908,-1.98515 -66.57662,-39.03273 -89.96813,-65.69426 l -22.262,-15.11 -0.33393,-25.56466 z"
         transform="translate(-144.8873,-49.1386)"
         opacity="0.1"
         id="path26" />
      <path
         d="m 745.8873,267.8614 6.36377,15 h 5.63623 l -8,-38 c 0,-24.39075 -11.77246,-45 -36.16333,-45 h -2.5e-4 A 30.83661,30.83661 0 0 0 682.8873,230.698 v 37.26782 a 14.89557,14.89557 0 0 0 14.8955,14.89563 h 43.7295 z"
         transform="translate(-144.8873,-49.1386)"
         fill="#2f2e41"
         id="path28" />
      <path
         d="m 642.3873,651.3614 c 0,0 -9,12 -9,15 0,3 -5,4 -8,7 -3,3 -6,2 -4,5 2,3 -25,21 -25,21 l -26,34 7,6 20,-21 -3,37 28,26 c 0,0 12,2 13,0 1,-2 -10,-22 -10,-22 0,0 1,-18 7,-25 a 102.02946,102.02946 0 0 0 10,-14 c 0,0 -3,-4 4,-5 7,-1 2,-7 2,-7 0,0 2,-1 8,-1 6,0 33,-29 33,-29 z"
         transform="translate(-144.8873,-49.1386)"
         fill="#2f2e41"
         id="path30" />
      <path
         d="m 754.3873,682.3614 c 0,0 -4,14 3,22 7,8 0,6 0,6 0,0 1,6 -3,9 -4,3 -4,9 -4,9 0,0 -5,10 -4,16 1,6 1,36 1,36 h 10 v -26 l 20,26 h 50 c 0,0 -1,-5 -6,-6 -5,-1 -20,0 -23,-21 0,0 -1,-12 -3,-14 -2,-2 -4,-9 -2,-14 2,-5 0,-7 3,-9 3,-2 4,-8 2,-11 -2,-3 -8,-8 -1,-11 7,-3 7,-18 7,-18 z"
         transform="translate(-144.8873,-49.1386)"
         fill="#2f2e41"
         id="path32" />
      <path
         d="m 688.3873,442.3614 c 0,0 -11,9 3,46 14,37 20,85 20,85 0,0 -14,12 -14,18 0,6 -62,44 -58,61 4,17 77,49 84,47 7,-2 41,-98 41,-98 0,0 -13,-106 -14,-107 -1,-1 -31,-50 -31,-50 l -18,-37 z"
         transform="translate(-144.8873,-49.1386)"
         fill="#2f2e41"
         id="path34" />
      <path
         d="m 688.3873,442.3614 c 0,0 -11,9 3,46 14,37 20,85 20,85 0,0 -14,12 -14,18 0,6 -62,44 -58,61 4,17 77,49 84,47 7,-2 41,-98 41,-98 0,0 -13,-106 -14,-107 -1,-1 -31,-50 -31,-50 l -18,-37 z"
         transform="translate(-144.8873,-49.1386)"
         opacity="0.1"
         id="path36" />
      <path
         d="m 687.3873,419.3614 c 0,0 -8,29 11,59 19,30 41,92 41,92 0,0 21,65 12,112 0,0 -3,6 5,6 8,0 92,-2 85,-23 -7,-21 -38,-119 -38,-119 l -40,-99 -2,-30 -15,-23 h -31 z"
         transform="translate(-144.8873,-49.1386)"
         fill="#2f2e41"
         id="path38" />
      <path
         d="m 547.49616,449.3614 c 0,0 -30.24936,0 -23.67342,9 6.57594,9 31.56456,8 31.56456,8 z"
         transform="translate(-144.8873,-49.1386)"
         fill="#ffb9b9"
         id="path40" />
      <path
         d="m 705.8873,242.8614 c 0,0 2,14 -5,16 -7,2 28,17 28,17 0,0 7,-24 10,-27 3,-3 -33,-6 -33,-6 z"
         transform="translate(-144.8873,-49.1386)"
         fill="#ffb9b9"
         id="path42" />
      <path
         d="m 705.8873,242.8614 c 0,0 2,14 -5,16 -7,2 28,17 28,17 0,0 7,-24 10,-27 3,-3 -33,-6 -33,-6 z"
         transform="translate(-144.8873,-49.1386)"
         opacity="0.1"
         id="path44" />
      <path
         d="m 733.8873,265.8614 c 0,0 -31,-9 -32,-12 -1,-3 -8,4 -11,9 -3,5 -9,11 -12,11 -3,0 -25,13 -30,36 -2.28888,10.52884 -5.62556,16.65695 -8.57106,20.207 a 19.29176,19.29176 0 0 0 -3.88265,10.00131 0.97368,0.97368 0 0 1 -0.54629,0.79167 c -2,1 42,43 42,43 0,0 17,-4 20,0 3,4 -2,11 -5,15 -3,4 -10,24 -6,27 4,3 25,-27 37,-21 12,6 24,1 24,1 0,0 5,16 13,16 8,0 10,-13 7,-17 -3,-4 -15,-12 -9,-23 6,-11 8,-31 8,-31 0,0 16,-19 -13,-42 0,0 -10,-28 -13,-30 -3,-2 -8,-3 -8,-5 0,-2 1,-7.99998 1,-7.99998 z"
         transform="translate(-144.8873,-49.1386)"
         fill="#ff6584"
         id="path46" />
      <path
         d="m 638.8873,335.8614 -30,42 -26,32 c 0,0 -27,29 -30,33 -3,4 -12,3 -10,9 2,6 5,16 8,17 3,1 17,-1 18,-3 1,-2 66,-40 89,-67 l 22.03912,-15.43319 -0.0391,-25.56681 z"
         transform="translate(-144.8873,-49.1386)"
         fill="#ff6584"
         id="path48" />
      <path
         d="m 699.47936,384.93877 57.96608,1.84974 a 2.517,2.517 0 0 1 2.44186,2.51584 v 0.92487 a 2.517,2.517 0 0 1 -2.62955,2.51444 l -57.96608,-2.7746 a 2.517,2.517 0 0 1 -2.40437,-2.51444 v 0 a 2.517,2.517 0 0 1 2.59206,-2.51585 z"
         transform="translate(-144.8873,-49.1386)"
         fill="#2f2e41"
         id="path50" />
      <ellipse
         cx="614"
         cy="341.22281"
         rx="1"
         ry="5.5"
         fill="#2f2e41"
         id="ellipse52" />
      <circle
         cx="581"
         cy="181.72279"
         r="28"
         fill="#ffb9b9"
         id="circle54"
         style="fill:#aa8267;fill-opacity:1" />
      <path
         d="m 737.59018,201.19862 c -5.4253,-1.37519 -18.28907,-1.33722 -20.17139,-1.33722 a 34.53142,34.53142 0 0 0 -34.53149,34.53143 l -13,48.46857 h 25.3042 l 4.6958,-18 6.66674,18 h 12.73829 l 1.095,-10.81653 4.31128,10.81653 h 14.18869 c -10.62647,-24.04407 -16.2793,-45.96063 -2.31812,-59.48786 9.42749,1.28412 17.37866,-1.241 18.67432,-6.35223 1.49267,-5.88892 -6.41089,-12.97296 -17.65332,-15.82269 z"
         transform="translate(-144.8873,-49.1386)"
         fill="#2f2e41"
         id="path56"
         style="fill:#241c1c" />
      <path
         d="M 736.68257,277.72205"
         transform="translate(-144.8873,-49.1386)"
         fill="#2f2e41"
         id="path58" />
      <path
         d="m 177.7873,372.4614 a 14.01224,14.01224 0 0 1 -12.2,-21 c 17.8,-30 71.9,-100.1 190.1,-100.1 51.2,0 96.1,13.6 133.4,40.4 30.7,22 47.9,46.9 56.1,58.9 a 13.89683,13.89683 0 0 1 -3.7,19.4 14.2241,14.2241 0 0 1 -19.6,-3.7 c -14.9,-21.6 -60.1,-87.2 -166.2,-87.2 -103.6,0 -150.4,60.4 -165.7,86.3 a 13.80376,13.80376 0 0 1 -12.2,7 z"
         transform="translate(-144.8873,-49.1386)"
         fill="#6c63ff"
         id="path60" />
      <path
         d="m 415.1873,646.8614 a 13.93427,13.93427 0 0 1 -3.5,-0.4 c -85.7,-21.5 -117.7,-108.1 -119,-111.7 l -0.2,-0.8 c -0.7,-2.5 -17.9,-61.9 8.5,-96.7 12.1,-15.9 30.5,-24 54.8,-24 22.6,0 38.9,7.1 50.1,21.8 9.2,12 12.9,26.8 16.5,41.1 7.5,29.7 12.9,45.3 44.1,46.9 13.7,0.7 22.7,-7.4 27.8,-14.3 13.8,-18.8 16.2,-49.5 5.8,-76.5 -13.4,-35 -60.8,-100.9 -144.4,-100.9 -35.7,0 -68.5,11.6 -94.8,33.4 -21.8,18.1 -39.1,43.6 -47.4,69.8 -15.4,48.8 4.8,125.5 5,126.2 a 13.8707,13.8707 0 0 1 -10,17 14.20244,14.20244 0 0 1 -17.3,-9.9 c -0.9,-3.5 -22.5,-85.3 -4.7,-141.7 19.4,-61.10005 79.2,-122.7 169.2,-122.7 41.6,0 80.9,14.3 113.7,41.3 25.4,21 46.2,49.2 57,77.4 13.8,36 10.1,76.4 -9.4,102.8 -13,17.6 -31.5,26.8 -52,25.8 -53.4,-2.7 -63,-40.4 -70,-67.9 -7.2,-28.2 -11.8,-41.8 -39.3,-41.8 -15.1,0 -25.7,4.2 -32.3,12.9 -9,11.9 -9.7,30.5 -8.7,44 q 0.015,0.2115 0.0306,0.42218 a 113.92745,113.92745 0 0 0 15.21027,48.70181 c 13.88212,23.93614 42.04092,60.64529 88.75913,72.376 a 13.89141,13.89141 0 0 1 10.2,16.9 14.19649,14.19649 0 0 1 -13.7,10.5 z"
         transform="translate(-144.8873,-49.1386)"
         fill="#6c63ff"
         id="path62" />
      <path
         d="m 305.1873,640.4614 a 14.23792,14.23792 0 0 1 -10.3,-4.4 c -34.3,-36.4 -53.7,-77.1 -61,-128 v -0.3 c -4.1,-33.7 1.9,-81.4 31.3,-114.2 21.7,-24.2 52.2,-36.5 90.5,-36.5 45.3,0 80.9,21.3 103.1,61.5 a 172.86688,172.86688 0 0 1 19.4,59.5 14.126,14.126 0 0 1 -28.1,2.9 144.75414,144.75414 0 0 0 -16.5,-49.7 c -17.2,-30.7 -43.4,-46.3 -78,-46.3 -29.9,0 -53.3,9.1 -69.4,27.1 -23.2,25.9 -27.7,65.8 -24.5,92.2 6.4,45 23.5,80.8 53.7,112.8 a 13.83125,13.83125 0 0 1 -0.7,19.7 14.18492,14.18492 0 0 1 -9.5,3.7 z"
         transform="translate(-144.8873,-49.1386)"
         fill="#6c63ff"
         id="path64" />
      <circle
         cx="211"
         cy="442.72281"
         r="18"
         fill="#6c63ff"
         id="circle66" />
    </g>
    <path
       style="fill:#916f6f;stroke-width:1.02605"
       d="m 394.36044,415.84546 c -3.56459,-0.63948 -3.76738,-1.00716 -4.5437,-8.23833 l -0.68847,-6.41283 3.89865,0.005 3.89866,0.005 2.73093,7.69043 2.73093,7.69043 -2.73093,-0.13973 c -1.50202,-0.0769 -3.88524,-0.34681 -5.29607,-0.59991 z"
       id="path335"
       transform="matrix(0.26458333,0,0,0.26458333,-17.605719,36.057805)" />
    <path
       style="fill:#916f6f;stroke-width:1.02605"
       d=""
       id="path337"
       transform="matrix(0.26458333,0,0,0.26458333,-17.605719,36.057805)" />
    <path
       style="fill:#916f6f;stroke-width:1.02605"
       d=""
       id="path339"
       transform="matrix(0.26458333,0,0,0.26458333,-17.605719,36.057805)" />
  </g>
</svg>
